<svg xmlns:dc="http://purl.org/dc/elements/1.1/" xmlns:cc="http://creativecommons.org/ns#" xmlns:rdf="http://www.w3.org/1999/02/22-rdf-syntax-ns#" xmlns:svg="http://www.w3.org/2000/svg" xmlns="http://www.w3.org/2000/svg" xmlns:sodipodi="http://sodipodi.sourceforge.net/DTD/sodipodi-0.dtd" xmlns:inkscape="http://www.inkscape.org/namespaces/inkscape" align="center" width="60.5" height="75" id="svg3336" version="1.1" inkscape:version="0.91 r13725" sodipodi:docname="mylogo.svg">
  <title id="title3409">
    Marina Sideri logo
  </title>
  <metadata id="metadata3407">
    <rdf:RDF>
      <cc:Work rdf:about="">
        <dc:format>
          image/svg+xml
        </dc:format>
        <dc:type rdf:resource="http://purl.org/dc/dcmitype/StillImage"/>
        <dc:title>
          Marina Sideri logo
        </dc:title>
      </cc:Work>
    </rdf:RDF>
  </metadata>
  <sodipodi:namedview pagecolor="#ffffff" bordercolor="#666666" borderopacity="1" objecttolerance="10" gridtolerance="10" guidetolerance="10" inkscape:pageopacity="0" inkscape:pageshadow="2" inkscape:window-width="1366" inkscape:window-height="715" id="namedview3405" showgrid="false" showborder="true" inkscape:showpageshadow="false" units="px" fit-margin-top="0" fit-margin-left="2" fit-margin-right="0" fit-margin-bottom="0" inkscape:zoom="2.0753311" inkscape:cx="104.57872" inkscape:cy="25.3694" inkscape:window-x="-8" inkscape:window-y="-8" inkscape:window-maximized="1" inkscape:current-layer="g3393"/>
  <desc id="desc3338">
    This is a logo designed for the portfolio website of Marina Sideri.
  </desc>
  <g inkscape:label="0" inkscape:groupmode="layer" id="g3393" transform="scale(0.5) translate(-300.94309,-432.53959)">
    <path d="m416.48085 515.1432a1.771655 1.771655 0 1 0-3.54331 0 1.771655 1.771655 0 0 0 3.54331 0z" id="path3395" inkscape:connector-curvature="0" style="fill:none;stroke:#000"/>
    <path d="m357.76269 514.5667a21.4172 21.4172 0 0 1 2.88574 5.4791 19.738184 19.738184 0 0 1 0.65757 2.3369l0 0 0-14.57866 0 0a20.689386 20.689386 0 1 0-3.54331-11.57854l0 0 0 18.3452 0 0z" id="path3397" inkscape:connector-curvature="0" style="fill:none;stroke:#000"/>
    <path d="m309.45866 472.08372 0-35.43307 0.0109 0.0501a19.738184 19.738184 0 0 1-0.65757 2.33693 21.4172 21.4172 0 0 1-2.88574 5.47909l0 0 0 126.10023 0 0a21.4172 21.4172 0 0 1 2.88574 5.4791 19.738184 19.738184 0 0 1 0.65757 2.337l-0.0109-0.05 0-83.65697 0 0a52.966571 52.966571 0 0 0 1.26741 3.36073 43.143151 43.143151 0 0 0 3.64691 6.99378 31.911911 31.911911 0 0 0 3.16838 4.13216 24.47027 24.47027 0 0 0 3.61863 3.2853 19.158487 19.158487 0 0 0 4.03744 2.2985 15.806787 15.806787 0 0 0 13.1462-0.3731 20.404206 20.404206 0 0 0 3.9577-2.50912 26.291802 26.291802 0 0 0 3.53018-3.46422 35.977487 35.977487 0 0 0 4.17669-6.2084 49.989282 49.989282 0 0 0 3.23507-7.51558l0 0a50.80434 50.80434 0 0 1 2.23932-6.55651 35.412575 35.412575 0 0 1 4.71711-8.19328 23.676363 23.676363 0 0 1 5.13216-4.92053 16.832939 16.832939 0 0 1 7.84573-2.96977l0 0 17.14608 0 18.34519 0-0.004 0a21.4172 21.4172 0 0 1 5.4791-2.88574 19.738184 19.738184 0 0 1 2.33692-0.65757l0 0-26.15718 0-17.14608 0 0 0a6.763941 6.763941 0 0 0-0.47397 0.0304 19.630202 19.630202 0 0 0-5.98926 1.6421 23.274577 23.274577 0 0 0-6.44101 4.4084 32.900535 32.900535 0 0 0-6.34233 8.56109 48.258804 48.258804 0 0 0-3.00283 6.99071l0.27446-0.78728a47.790262 47.790262 0 0 1-4.36772 11.27656 29.193722 29.193722 0 0 1-7.93577 9.28598 12.425548 12.425548 0 0 1-7.5482 2.55546 12.425548 12.425548 0 0 1-7.54819-2.55546 29.193722 29.193722 0 0 1-7.93577-9.28598 47.790262 47.790262 0 0 1-4.60889-12.29879 74.409564 74.409564 0 0 1-1.80478-16.28892 74.409564 74.409564 0 0 1 0.005-0.89055l0 0.89738z" id="path3399" inkscape:connector-curvature="0" style="fill:none;stroke:#000"/>
    <path d="m395.59816 496.2255a17.14608 17.14608 0 1 0-34.29216 0 17.14608 17.14608 0 0 0 34.29216 0z" id="path3401" inkscape:connector-curvature="0" style="fill:none;stroke:#000"/>
  </g>
  <g inkscape:label="Defpoints" inkscape:groupmode="layer" id="g3403" transform="translate(-300.94309,-432.53959)"/>
  <!-- Add animation as inline style to embed svg directly in html -->
  <style type="text/css">

  @keyframes draw {
    to {
      stroke-dashoffset: 0;
    }
  }

  @keyframes fadeIn {
    from {
     opacity: 0.0;
    }
    to {
      opacity: 1.0;
    }
  }

  /* Animation for first letter mu */

  #path3399 {
    stroke-dasharray: 1000;
    stroke-dashoffset: 1000;
    animation: draw 3.5s linear;
    animation-fill-mode: forwards;
  }

  /* Animation for second letter sigma - inner line*/

  #path3401 {
    stroke-dasharray: 500;
    stroke-dashoffset: 500;
    animation: draw 1.5s linear 1s;
    animation-fill-mode: forwards;
  }

  /* Animation for second letter sigma - outer line*/

  #path3397 {
    stroke-dasharray: 500;
    stroke-dashoffset: 500;
    animation: draw 3s linear 1s;
    animation-fill-mode: forwards;
  }
  /* Animation for dot*/

  #path3395 {
    animation: fadeIn 2.5s ease-in;
    animation-fill-mode: forwards;
  }
  </style>
</svg>
